first trial																																					
nRows=24																																					
nColumns=38																																					
																																					
# SIMM Motion File Header:																																					
name Chen yuetian_10kg																																					
datacolumns 38																																					
datarows 24																																					
otherdata 1																																					
range 0 0.383																																					
endheader																																					
time	pelvis_tilt	pelvis_list	pelvis_rotation	pelvis_tx	pelvis_ty	pelvis_tz	hip_flexion_r	hip_adduction_r	hip_rotation_r	knee_angle_r	ankle_angle_r	subtalar_angle_r	mtp_angle_r	hip_flexion_l	hip_adduction_l	hip_rotation_l	knee_angle_l	ankle_angle_l	subtalar_angle_l	mtp_angle_l	lumbar_extension	lumbar_bending	lumbar_rotation	arm_flex_r	arm_add_r	arm_rot_r	elbow_flex_r	pro_sup_r	wrist_flex_r	wrist_dev_r	arm_flex_l	arm_add_l	arm_rot_l	elbow_flex_l	pro_sup_l	wrist_flex_l	wrist_dev_l
0	17.4521	-9.3134	-71.8971	0.1605	0.688	-0.4325	44.0854	-9.1429	-3.6039	68.4881	5.1145	2.1135	0	50.3138	-19.4908	29.9476	53.462	-15.639	10.9351	0	-15.4434	-3.155	2.6634	-2.9802	-31.7628	-14.8096	73.2049	98.501	-33.8893	17.4427	21.0113	-16.6707	-3.9518	4.2022	7.391	-9.4858	-29.9381
0.016	17.5694	-9.2981	-71.9436	0.1608	0.6884	-0.4322	43.9797	-9.1379	-3.4936	68.5069	5.0724	2.1042	0	50.1023	-19.5407	29.9111	53.3936	-15.6491	10.9891	0	-15.4756	-3.1642	2.6742	-2.9833	-31.768	-14.8105	73.113	98.5289	-33.8919	17.3954	21.0002	-16.653	-4.071	4.1909	7.4323	-9.4451	-29.9147
0.033	17.6867	-9.2826	-71.9901	0.1611	0.6888	-0.4318	43.8742	-9.133	-3.3832	68.5258	5.0303	2.095	0	49.8907	-19.5905	29.8743	53.3251	-15.6592	11.043	0	-15.5077	-3.1735	2.6849	-2.9863	-31.7733	-14.8114	73.0211	98.5567	-33.8945	17.3482	20.989	-16.6352	-4.1903	4.1797	7.4735	-9.4044	-29.8912
0.05	17.7946	-9.2667	-72.0307	0.1613	0.6892	-0.4315	43.7729	-9.1271	-3.2835	68.537	4.9893	2.0856	0	49.6984	-19.6341	29.846	53.2711	-15.66	11.0926	0	-15.5345	-3.1834	2.6961	-2.9876	-31.7752	-14.8175	72.9285	98.583	-33.8899	17.3107	20.9744	-16.6201	-4.297	4.1625	7.5043	-9.3802	-29.8673
0.066	17.889	-9.2496	-72.0627	0.1615	0.6896	-0.4312	43.676	-9.1192	-3.2005	68.5353	4.9488	2.0762	0	49.5341	-19.6695	29.8318	53.2404	-15.6466	11.1375	0	-15.5523	-3.1947	2.7088	-2.9853	-31.7722	-14.8339	72.8296	98.6056	-33.8713	17.2896	20.9513	-16.6094	-4.3861	4.1323	7.5148	-9.3741	-29.8389
0.083	17.9739	-9.2321	-72.0887	0.1617	0.6899	-0.431	43.5833	-9.1103	-3.1284	68.5258	4.9094	2.0668	0	49.3893	-19.699	29.8262	53.2244	-15.6239	11.1781	0	-15.5648	-3.2066	2.7221	-2.9812	-31.7658	-14.8555	72.73	98.6266	-33.8454	17.2782	20.9249	-16.6014	-4.4627	4.0962	7.5148	-9.3844	-29.81
0.1	18.0508	-9.2155	-72.1104	0.1618	0.6903	-0.4307	43.4977	-9.1026	-3.0598	68.5166	4.8743	2.0571	0	49.2577	-19.7232	29.8216	53.2116	-15.5971	11.2108	0	-15.5771	-3.2176	2.7334	-2.979	-31.757	-14.8726	72.646	98.6505	-33.826	17.2673	20.9066	-16.5936	-4.5294	4.0692	7.5233	-9.4227	-29.7922
0.116	18.1202	-9.1999	-72.1284	0.1619	0.6906	-0.4304	43.4204	-9.0972	-2.991	68.5102	4.8448	2.0481	0	49.1377	-19.7408	29.8167	53.1994	-15.5651	11.2326	0	-15.5917	-3.227	2.742	-2.9819	-31.7451	-14.8812	72.5874	98.6818	-33.8208	17.2504	20.9017	-16.5842	-4.5864	4.0653	7.5492	-9.5105	-29.7905
0.133	18.1816	-9.1852	-72.142	0.1621	0.6908	-0.4302	43.3502	-9.093	-2.9259	68.5041	4.8196	2.039	0	49.0311	-19.7531	29.8128	53.1904	-15.529	11.2465	0	-15.6061	-3.2355	2.7486	-2.9867	-31.7308	-14.8854	72.5445	98.7159	-33.822	17.2339	20.905	-16.5751	-4.6334	4.0704	7.5835	-9.6264	-29.7999
0.15	18.2354	-9.1726	-72.1516	0.1622	0.6911	-0.43	43.2866	-9.0894	-2.8685	68.4984	4.7992	2.0269	0	48.9371	-19.7644	29.8063	53.1817	-15.4972	11.2588	0	-15.6187	-3.2438	2.7537	-2.9864	-31.7171	-14.8876	72.5045	98.7427	-33.8195	17.2266	20.9122	-16.5688	-4.6728	4.057	7.6188	-9.7184	-29.8174
0.166	18.2801	-9.1625	-72.1558	0.1623	0.6913	-0.4298	43.2302	-9.0871	-2.8215	68.4931	4.7849	2.0093	0	48.8576	-19.7751	29.7958	53.1718	-15.4748	11.2714	0	-15.6279	-3.2522	2.7576	-2.9775	-31.7057	-14.8888	72.463	98.7566	-33.8084	17.2369	20.9262	-16.5669	-4.7025	4.0105	7.6536	-9.7845	-29.8437
0.183	18.3171	-9.1546	-72.1557	0.1624	0.6915	-0.4296	43.1805	-9.0854	-2.7824	68.4882	4.7753	1.9888	0	48.7907	-19.7848	29.7827	53.1623	-15.4567	11.2823	0	-15.6352	-3.2604	2.76	-2.9636	-31.6949	-14.8881	72.4244	98.7632	-33.7936	17.2564	20.9443	-16.568	-4.7247	3.9453	7.6892	-9.8267	-29.8781
0.2	18.3511	-9.1488	-72.1565	0.1625	0.6917	-0.4295	43.1346	-9.0823	-2.7473	68.4832	4.7661	1.9708	0	48.7294	-19.7958	29.7676	53.1543	-15.4363	11.2917	0	-15.6429	-3.2679	2.7599	-2.9486	-31.6829	-14.8847	72.3891	98.7704	-33.779	17.2692	20.9535	-16.5696	-4.748	3.877	7.7224	-9.7987	-29.9149
0.216	18.3838	-9.1453	-72.1589	0.1625	0.6919	-0.4293	43.0913	-9.0772	-2.7143	68.4782	4.7565	1.9565	0	48.6712	-19.8093	29.7484	53.1486	-15.41	11.3001	0	-15.6519	-3.2742	2.7553	-2.9327	-31.6691	-14.8741	72.3562	98.7817	-33.7655	17.2677	20.9478	-16.5722	-4.774	3.8051	7.7545	-9.671	-29.9691
0.233	18.4134	-9.1438	-72.1619	0.1626	0.692	-0.4292	43.0518	-9.0707	-2.6854	68.4732	4.7472	1.9447	0	48.6186	-19.8242	29.7273	53.1446	-15.3815	11.3068	0	-15.6613	-3.2798	2.7482	-2.9158	-31.6542	-14.8607	72.3265	98.7936	-33.7522	17.2595	20.9334	-16.5754	-4.8011	3.7301	7.7842	-9.4732	-30.025
0.25	18.4393	-9.1431	-72.1674	0.1627	0.6922	-0.4291	43.0179	-9.0625	-2.662	68.4672	4.7359	1.9368	0	48.5725	-19.84	29.7113	53.1412	-15.3547	11.3098	0	-15.6708	-3.2862	2.7449	-2.9017	-31.6385	-14.8577	72.3028	98.8031	-33.7414	17.2514	20.9158	-16.5755	-4.8339	3.6681	7.8041	-9.2473	-30.0304
0.266	18.4604	-9.1436	-72.1777	0.1627	0.6923	-0.429	42.9921	-9.0502	-2.6464	68.4602	4.7208	1.9339	0	48.535	-19.8587	29.7045	53.138	-15.3308	11.3082	0	-15.6812	-3.2945	2.7494	-2.8898	-31.6181	-14.8746	72.289	98.807	-33.7347	17.2445	20.8941	-16.569	-4.876	3.6368	7.7931	-9.0052	-29.9443
0.283	18.4777	-9.145	-72.1907	0.1628	0.6924	-0.4289	42.9718	-9.0363	-2.6364	68.4522	4.7037	1.9349	0	48.5039	-19.8784	29.7029	53.1354	-15.3086	11.3028	0	-15.6918	-3.3037	2.7577	-2.8807	-31.597	-14.9019	72.2813	98.8086	-33.7304	17.2377	20.8692	-16.5594	-4.9237	3.6186	7.7722	-8.7344	-29.8077
0.3	18.494	-9.1456	-72.2013	0.1628	0.6925	-0.4289	42.9504	-9.0271	-2.6268	68.4426	4.6882	1.9375	0	48.4736	-19.8923	29.7018	53.1338	-15.2882	11.2938	0	-15.6996	-3.3119	2.7636	-2.8801	-31.5878	-14.9238	72.2701	98.8143	-33.7255	17.234	20.8501	-16.5542	-4.9703	3.5773	7.7973	-8.4401	-29.6924
0.316	18.5108	-9.1445	-72.2075	0.1629	0.6926	-0.4288	42.9248	-9.0275	-2.616	68.4309	4.6756	1.943	0	48.4412	-19.8964	29.699	53.1337	-15.2687	11.2791	0	-15.7022	-3.3178	2.7644	-2.8927	-31.595	-14.9311	72.2519	98.8313	-33.7216	17.2364	20.8419	-16.5571	-5.0055	3.4931	7.8851	-8.1448	-29.6443
0.333	18.5266	-9.1427	-72.2114	0.1629	0.6928	-0.4287	42.898	-9.0326	-2.6058	68.4176	4.6646	1.9502	0	48.4096	-19.8949	29.6969	53.1346	-15.251	11.2608	0	-15.702	-3.3228	2.7629	-2.9138	-31.6141	-14.9332	72.2303	98.8523	-33.7171	17.2419	20.8393	-16.5644	-5.0396	3.3857	8.019	-7.8261	-29.618
0.35	18.5403	-9.1417	-72.2154	0.163	0.6929	-0.4287	42.873	-9.0355	-2.5966	68.4039	4.6549	1.9534	0	48.3818	-19.8936	29.698	53.1359	-15.2377	11.2449	0	-15.7041	-3.3294	2.7614	-2.9345	-31.6434	-14.9421	72.2074	98.863	-33.7044	17.2435	20.8351	-16.5724	-5.0973	3.278	8.2048	-7.4225	-29.5485
0.366	18.5513	-9.1417	-72.2211	0.1631	0.693	-0.4286	42.8504	-9.0337	-2.5882	68.3891	4.6466	1.9502	0	48.3591	-19.8945	29.7035	53.1381	-15.2307	11.2347	0	-15.7107	-3.339	2.7602	-2.9531	-31.6869	-14.9666	72.183	98.8535	-33.6747	17.2421	20.8287	-16.5799	-5.1964	3.1658	8.4792	-6.8803	-29.3965
0.383	18.5602	-9.1427	-72.2269	0.1631	0.6931	-0.4285	42.8296	-9.0297	-2.5809	68.3738	4.6395	1.9431	0	48.3403	-19.8958	29.7123	53.1407	-15.2282	11.2269	0	-15.7195	-3.3502	2.7589	-2.9714	-31.7407	-14.9979	72.1572	98.8335	-33.6367	17.2367	20.8206	-16.588	-5.3192	3.0534	8.8056	-6.2532	-29.2022
